#tb 0: 1/10
0,          0,          0,        1,    76800, 0xc87b6728
0,          1,          1,        1,    76800, 0xb0b24bc8
0,          2,          2,        1,    76800, 0x45a22d68
0,          3,          3,        1,    76800, 0x1821013b
0,          4,          4,        1,    76800, 0xfb17dc4f
0,          5,          5,        1,    76800, 0x8e7eb458
0,          6,          6,        1,    76800, 0x0df37d02
0,          7,          7,        1,    76800, 0x18e4500d
0,          8,          8,        1,    76800, 0x639316b0
0,          9,          9,        1,    76800, 0xce00e560
0,         10,         10,        1,    76800, 0xd533b42c
0,         11,         11,        1,    76800, 0x0772794c
0,         12,         12,        1,    76800, 0x99544be0
0,         13,         13,        1,    76800, 0x5f1a16c1
0,         14,         14,        1,    76800, 0x90bfe8ac
0,         15,         15,        1,    76800, 0xbd9bb834
0,         16,         16,        1,    76800, 0x658d8053
0,         17,         17,        1,    76800, 0x21cc5656
0,         18,         18,        1,    76800, 0x6d39208b
0,         19,         19,        1,    76800, 0x17b0f8cb
